<?xml version="1.0"?>
<svg xmlns="http://www.w3.org/2000/svg" xmlns:xlink="http://www.w3.org/1999/xlink" xmlns:svgjs="http://svgjs.com/svgjs" version="1.1" width="512" height="512" x="0" y="0" viewBox="0 0 490.667 490.667" style="enable-background:new 0 0 512 512" xml:space="preserve" class=""><g>
<path xmlns="http://www.w3.org/2000/svg" style="" d="M245.333,0C109.839,0,0,109.839,0,245.333s109.839,245.333,245.333,245.333  s245.333-109.839,245.333-245.333C490.514,109.903,380.764,0.153,245.333,0z" fill="#36f4ad" data-original="#f44336" class=""/>
<path xmlns="http://www.w3.org/2000/svg" style="" d="M254.485,111.851c-3.429-5.049-10.302-6.361-15.35-2.932c-1.154,0.784-2.149,1.779-2.932,2.932  l-128,213.333c-3.028,5.053-1.386,11.604,3.667,14.632c1.651,0.989,3.539,1.513,5.464,1.517h256  c5.891,0.001,10.668-4.773,10.669-10.664c0-1.932-0.524-3.828-1.517-5.485L254.485,111.851z" fill="#fafafa" data-original="#fafafa" class=""/>
<g xmlns="http://www.w3.org/2000/svg">
</g>
<g xmlns="http://www.w3.org/2000/svg">
</g>
<g xmlns="http://www.w3.org/2000/svg">
</g>
<g xmlns="http://www.w3.org/2000/svg">
</g>
<g xmlns="http://www.w3.org/2000/svg">
</g>
<g xmlns="http://www.w3.org/2000/svg">
</g>
<g xmlns="http://www.w3.org/2000/svg">
</g>
<g xmlns="http://www.w3.org/2000/svg">
</g>
<g xmlns="http://www.w3.org/2000/svg">
</g>
<g xmlns="http://www.w3.org/2000/svg">
</g>
<g xmlns="http://www.w3.org/2000/svg">
</g>
<g xmlns="http://www.w3.org/2000/svg">
</g>
<g xmlns="http://www.w3.org/2000/svg">
</g>
<g xmlns="http://www.w3.org/2000/svg">
</g>
<g xmlns="http://www.w3.org/2000/svg">
</g>
</g></svg>
